<svg height="300px" width="300px" fill="#000000" xmlns="http://www.w3.org/2000/svg" xmlns:xlink="http://www.w3.org/1999/xlink" version="1.1" x="0px" y="0px" viewBox="0 0 32 32" enable-background="new 0 0 32 32" xml:space="preserve"><path d="M24.661,5.221c-0.181-0.116-0.407-0.132-0.603-0.042l-2.512,1.157l-2.512-1.157c-0.168-0.077-0.36-0.077-0.527,0  l-2.51,1.157l-2.511-1.157c-0.168-0.077-0.36-0.077-0.527,0l-2.51,1.156L7.941,5.179c-0.195-0.09-0.423-0.075-0.604,0.042  c-0.181,0.115-0.29,0.315-0.29,0.53v20.497c0,0.215,0.109,0.415,0.29,0.531s0.408,0.132,0.604,0.041l2.512-1.156l2.512,1.156  c0.167,0.077,0.359,0.077,0.527,0l2.509-1.156l2.512,1.156c0.167,0.077,0.359,0.077,0.527,0l2.509-1.156l2.51,1.156  c0.084,0.039,0.174,0.059,0.264,0.059c0.118,0,0.236-0.034,0.339-0.1c0.182-0.116,0.291-0.316,0.291-0.531V5.751  C24.952,5.536,24.843,5.336,24.661,5.221z M11.307,12.965c-0.91-0.293-1.554-0.719-1.554-1.563c0-0.761,0.526-1.362,1.471-1.555  V9.079h0.952V9.78c0.577,0.025,0.97,0.143,1.271,0.268l-0.268,1.112c-0.226-0.093-0.627-0.285-1.262-0.285  c-0.493,0-0.644,0.176-0.644,0.359c0,0.209,0.284,0.368,0.986,0.619c1.053,0.342,1.438,0.818,1.438,1.579  c0,0.777-0.552,1.412-1.555,1.597v0.852H11.19v-0.777c-0.586-0.033-1.153-0.191-1.479-0.359l0.276-1.152  c0.375,0.184,0.894,0.367,1.471,0.367c0.417,0,0.718-0.117,0.718-0.385C12.176,13.315,11.934,13.157,11.307,12.965z M22.247,22.617  H9.752v-1.05h12.495V22.617z M22.247,18.556H9.752v-1.05h12.495V18.556z M22.247,14.494h-7.074v-1.051h7.074V14.494z M22.247,10.433  h-7.074v-1.05h7.074V10.433z"/></svg>