<svg height="300px" width="300px" fill="#000000" xmlns="http://www.w3.org/2000/svg" xmlns:xlink="http://www.w3.org/1999/xlink" version="1.1" x="0px" y="0px" viewBox="0 0 100 100" enable-background="new 0 0 100 100" xml:space="preserve"><path d="M46.257,40.261c0-1.326-1.076-2.402-2.402-2.402h-5.204c-1.327,0-2.401,1.076-2.401,2.402v2.401  c0,1.326,1.075,2.401,2.401,2.401h5.204c1.326,0,2.402-1.075,2.402-2.401V40.261z"/><path d="M62.468,42.662v-2.401c0-1.326-1.075-2.402-2.401-2.402h-5.204c-1.326,0-2.401,1.076-2.401,2.402v2.401  c0,1.326,1.075,2.401,2.401,2.401h5.204C61.393,45.063,62.468,43.988,62.468,42.662z"/><path d="M30.046,40.261c0-1.326-1.075-2.402-2.401-2.402H22.44c-1.326,0-2.401,1.076-2.401,2.402v2.401  c0,1.326,1.075,2.401,2.401,2.401h5.204c1.327,0,2.401-1.075,2.401-2.401V40.261z"/><path d="M46.257,51.915c0-1.326-1.076-2.401-2.402-2.401h-5.204c-1.327,0-2.401,1.076-2.401,2.401v2.402  c0,1.326,1.075,2.401,2.401,2.401h5.204c1.326,0,2.402-1.075,2.402-2.401V51.915z"/><path d="M30.046,51.915c0-1.326-1.075-2.401-2.401-2.401H22.44c-1.326,0-2.401,1.076-2.401,2.401v2.402  c0,1.326,1.075,2.401,2.401,2.401h5.204c1.327,0,2.401-1.075,2.401-2.401V51.915z"/><path d="M43.855,61.169h-5.204c-1.327,0-2.401,1.075-2.401,2.401v2.401c0,1.327,1.075,2.402,2.401,2.402h5.204  c1.326,0,2.402-1.075,2.402-2.402V63.57C46.257,62.244,45.182,61.169,43.855,61.169z"/><path d="M27.645,61.169H22.44c-1.326,0-2.401,1.075-2.401,2.401v2.401c0,1.327,1.075,2.402,2.401,2.402h5.204  c1.327,0,2.401-1.075,2.401-2.402V63.57C30.046,62.244,28.971,61.169,27.645,61.169z"/><path d="M24.701,22.868c1.95,0,3.536-1.586,3.536-3.536V8.536C28.236,6.586,26.65,5,24.701,5c-1.949,0-3.536,1.586-3.536,3.536  v10.796C21.165,21.282,22.751,22.868,24.701,22.868z"/><path d="M57.807,22.868c1.948,0,3.535-1.586,3.535-3.536V8.536c0-1.95-1.587-3.536-3.535-3.536c-1.949,0-3.535,1.586-3.535,3.536  v10.796C54.271,21.282,55.857,22.868,57.807,22.868z"/><path d="M70.359,50.33c-12.316,0-22.335,10.02-22.335,22.335S58.043,95,70.359,95c12.315,0,22.335-10.02,22.335-22.335  S82.675,50.33,70.359,50.33z M70.359,90.931c-10.072,0-18.267-8.194-18.267-18.266c0-10.072,8.194-18.266,18.267-18.266  c10.071,0,18.266,8.193,18.266,18.266C88.625,82.736,80.431,90.931,70.359,90.931z"/><path d="M82.535,70.63H72.394V60.489c0-1.124-0.91-2.035-2.034-2.035s-2.035,0.911-2.035,2.035V72.66v0.005  c0,1.124,0.911,2.034,2.035,2.034h12.176c1.124,0,2.034-0.91,2.034-2.034S83.659,70.63,82.535,70.63z"/><path d="M13.791,73.184c-1.194,0-2.162-0.968-2.162-2.161V35.208c0-1.193,0.967-2.16,2.16-2.16h54.929c1.193,0,2.16,0.967,2.16,2.16  v13.348c1.477,0.031,2.923,0.189,4.323,0.476V20.418c0-3.581-2.902-6.484-6.484-6.484h-5.142v5.398c0,3.181-2.588,5.769-5.769,5.769  c-3.182,0-5.77-2.588-5.77-5.769v-5.398H30.47v5.398c0,3.181-2.588,5.769-5.77,5.769c-3.181,0-5.769-2.588-5.769-5.769v-5.398  h-5.141c-3.582,0-6.484,2.903-6.484,6.484v50.604c0,3.581,2.903,6.484,6.484,6.484h32.936c-0.287-1.4-0.444-2.847-0.476-4.323  H13.791z"/><path d="M54.863,49.514c-1.327,0-2.402,1.076-2.402,2.401v2.402c0,0.602,0.229,1.145,0.595,1.565  c2.412-2.486,5.352-4.454,8.638-5.724c-0.428-0.397-0.997-0.645-1.627-0.645H54.863z"/></svg>