<svg height="300px" width="300px" fill="#333333" xmlns="http://www.w3.org/2000/svg" xmlns:xlink="http://www.w3.org/1999/xlink" version="1.1" x="0px" y="0px" viewBox="0 0 150 150" enable-background="new 0 0 150 150" xml:space="preserve"><g><g><g><line x1="27.5" y1="40.748" x2="122.5" y2="40.748"/><path d="M122.5,44.248h-95c-1.933,0-3.5-1.567-3.5-3.5s1.567-3.5,3.5-3.5h95c1.933,0,3.5,1.567,3.5,3.5     S124.433,44.248,122.5,44.248z"/></g><g><line x1="27.5" y1="75.001" x2="122.5" y2="75.001"/><path d="M122.5,78.501h-95c-1.933,0-3.5-1.567-3.5-3.5s1.567-3.5,3.5-3.5h95c1.933,0,3.5,1.567,3.5,3.5     S124.433,78.501,122.5,78.501z"/></g><g><line x1="27.5" y1="109.254" x2="122.5" y2="109.254"/><path d="M122.5,112.754h-95c-1.933,0-3.5-1.567-3.5-3.5s1.567-3.5,3.5-3.5h95c1.933,0,3.5,1.567,3.5,3.5     S124.433,112.754,122.5,112.754z"/></g></g></g><g display="none"><text transform="matrix(1 0 0 1 63.1919 13.5132)" display="inline" font-family="'MyriadPro-Regular'" font-size="12">Ham</text></g></svg>