<svg height="300px" width="300px" fill="#000000" xmlns:dc="http://purl.org/dc/elements/1.1/" xmlns:cc="http://creativecommons.org/ns#" xmlns:rdf="http://www.w3.org/1999/02/22-rdf-syntax-ns#" xmlns:svg="http://www.w3.org/2000/svg" xmlns="http://www.w3.org/2000/svg" xmlns:sodipodi="http://sodipodi.sourceforge.net/DTD/sodipodi-0.dtd" xmlns:inkscape="http://www.inkscape.org/namespaces/inkscape" viewBox="0 0 16.933333 16.933334" version="1.1" x="0px" y="0px"><g transform="translate(0,-280.06665)" style="" display="inline"><path style="color:#000000;font-style:normal;font-variant:normal;font-weight:normal;font-stretch:normal;font-size:medium;line-height:normal;font-family:sans-serif;font-variant-ligatures:normal;font-variant-position:normal;font-variant-caps:normal;font-variant-numeric:normal;font-variant-alternates:normal;font-feature-settings:normal;text-indent:0;text-align:start;text-decoration:none;text-decoration-line:none;text-decoration-style:solid;text-decoration-color:#000000;letter-spacing:normal;word-spacing:normal;text-transform:none;writing-mode:lr-tb;direction:ltr;text-orientation:mixed;dominant-baseline:auto;baseline-shift:baseline;text-anchor:start;white-space:normal;shape-padding:0;clip-rule:nonzero;display:inline;overflow:visible;visibility:visible;opacity:1;isolation:auto;mix-blend-mode:normal;color-interpolation:sRGB;color-interpolation-filters:linearRGB;solid-color:#000000;solid-opacity:1;vector-effect:none;fill:#000000;fill-opacity:1;fill-rule:nonzero;stroke:none;stroke-width:0.5291667;stroke-linecap:round;stroke-linejoin:round;stroke-miterlimit:4;stroke-dasharray:none;stroke-dashoffset:0;stroke-opacity:1;paint-order:normal;color-rendering:auto;image-rendering:auto;shape-rendering:auto;text-rendering:auto;enable-background:accumulate" d="m 8.2605978,280.51698 c -0.08953,0.005 -0.170447,0.055 -0.214974,0.13281 l -0.767395,1.33015 -2.255676,-1.30276 c -0.234373,-0.13558 -0.496985,0.12665 -0.361736,0.36122 l 2.370397,4.10621 c -0.0803,0.12414 -0.128156,0.2711 -0.128156,0.4284 0,0.15546 0.04754,0.29978 0.12609,0.42271 -1.213663,0.9918 -2.772265,2.12592 -3.831291,3.46749 -0.427318,0.54133 -0.77202,1.11893 -0.966349,1.73736 -0.03782,0.14114 0.04593,0.28621 0.187069,0.32401 0.141142,0.0378 0.288774,-0.0454 0.326596,-0.18655 0.171268,-0.5316 0.474488,-1.04732 0.86868,-1.54668 1.016323,-1.28747 2.603931,-2.43288 3.852995,-3.46387 0.07318,0.0226 0.149254,0.0382 0.229444,0.0382 h 2.117183 c 0.07161,0 0.139499,-0.0129 0.2056712,-0.031 0.278797,0.10534 0.82863,0.32263 1.577165,0.7183 1.007632,0.53262 2.068497,1.29699 2.339909,1.98851 0.395563,1.00782 0.517316,2.45829 0.287322,3.72225 -0.229997,1.26395 -0.802034,2.3066 -1.69137,2.64687 -1.643105,0.62868 -3.7228182,0.73361 -5.5118082,0.47852 -1.788989,-0.2551 -3.279765,-0.90768 -3.734139,-1.57044 -0.473816,-0.69112 -0.67578,-1.32454 -0.694015,-1.92599 a 0.26458337,0.26458337 0 0 0 -0.264584,-0.26458 0.26458337,0.26458337 0 0 0 -0.264583,0.26458 c -0.0082,0.755 0.228939,1.40986 0.787548,2.22467 0.642768,0.93758 2.229112,1.5309 4.093808,1.79679 1.864696,0.26588 4.0144752,0.16481 5.7769072,-0.50952 1.147538,-0.43906 1.773421,-1.68306 2.021584,-3.04685 0.248161,-1.36379 0.129614,-2.87935 -0.314193,-4.01009 -0.380836,-0.9703 -1.537637,-1.70809 -2.584339,-2.26136 -0.504595,-0.26672 -0.975945,-0.47703 -1.342035,-0.63045 0.06418,-0.11428 0.103867,-0.24357 0.103867,-0.38292 0,-0.18242 -0.06497,-0.34979 -0.170013,-0.48473 l 1.015958,-3.79408 c 0.06035,-0.22781 -0.184778,-0.41492 -0.388607,-0.29663 l -1.7699172,1.01958 -0.789102,-1.36736 c -0.04967,-0.0868 -0.144041,-0.13819 -0.243911,-0.13281 z m 0.01344,0.79479 0.693497,1.20147 c 0.07355,0.12721 0.236651,0.17013 0.363286,0.0956 l 1.4433232,-0.83406 -0.8077042,3.01945 c -0.04955,-0.01 -0.100679,-0.016 -0.152961,-0.016 h -2.117183 c -0.08397,0 -0.16357,0.0171 -0.239778,0.0419 l -1.842265,-3.18998 1.628841,0.93948 c 0.12618,0.0731 0.287727,0.0303 0.361217,-0.0956 z m -0.577742,3.99562 h 2.117183 c 0.151156,0 0.2635492,0.11445 0.2635492,0.26562 0,0.15115 -0.1123932,0.26354 -0.2635492,0.26354 h -2.117183 c -0.151156,0 -0.265618,-0.11239 -0.265618,-0.26354 0,-0.15117 0.114462,-0.26562 0.265618,-0.26562 z m 1.025777,3.65456 c -0.13425,0 -0.268423,0.0901 -0.264584,0.27026 v 0.5669 c -0.454017,0.11865 -0.79375,0.52945 -0.79375,1.01905 v 5.3e-4 5.3e-4 c 0,0.58138 0.476965,1.05679 1.058334,1.05679 0.295388,0 0.529166,0.23429 0.529166,0.52968 v 5.3e-4 c 0,0.29539 -0.234293,0.52917 -0.529682,0.52917 h -5.29e-4 v 0.002 c -0.225873,-2.2e-4 -0.414293,-0.13814 -0.490927,-0.33486 -0.04077,-0.10586 -0.116985,-0.17957 -0.219107,-0.19379 -0.03404,-0.005 -0.06962,-0.003 -0.104902,0.007 -0.14115,0.0378 -0.221784,0.18184 -0.18397,0.32297 0.112845,0.33675 0.3902,0.59728 0.735357,0.68834 v 0.56689 c -0.0077,0.36037 0.536842,0.36037 0.529166,0 v -0.56741 c 0.453316,-0.11924 0.791684,-0.53075 0.791684,-1.02009 h 0.0021 v -5.3e-4 c 0,-0.58137 -0.476965,-1.05679 -1.058334,-1.05679 -0.295391,0 -0.529166,-0.23429 -0.529166,-0.52968 v -5.3e-4 -5.3e-4 c 0,-0.29522 0.233516,-0.52941 0.52865,-0.52968 v 0.002 h 5.3e-4 c 0.225364,0 0.414118,0.13658 0.491442,0.33228 0.04806,0.14258 0.182869,0.22487 0.324011,0.18706 0.141148,-0.0378 0.22024,-0.18183 0.182417,-0.32297 -0.112887,-0.33626 -0.388993,-0.59721 -0.733287,-0.68833 v -0.56638 c 0.004,-0.18019 -0.130334,-0.27026 -0.264583,-0.27026 z"/></g></svg>