<svg height="300px" width="300px" fill="#000000" xmlns:dc="http://purl.org/dc/elements/1.1/" xmlns:cc="http://creativecommons.org/ns#" xmlns:rdf="http://www.w3.org/1999/02/22-rdf-syntax-ns#" xmlns:svg="http://www.w3.org/2000/svg" xmlns="http://www.w3.org/2000/svg" xmlns:sodipodi="http://sodipodi.sourceforge.net/DTD/sodipodi-0.dtd" xmlns:inkscape="http://www.inkscape.org/namespaces/inkscape" viewBox="0 0 8.4666667 8.4666669" version="1.1" x="0px" y="0px"><svg:g><svg:path style="color:#000000;font-style:normal;font-variant:normal;font-weight:normal;font-stretch:normal;font-size:medium;line-height:normal;font-family:sans-serif;font-variant-ligatures:normal;font-variant-position:normal;font-variant-caps:normal;font-variant-numeric:normal;font-variant-alternates:normal;font-feature-settings:normal;text-indent:0;text-align:start;text-decoration:none;text-decoration-line:none;text-decoration-style:solid;text-decoration-color:#000000;letter-spacing:normal;word-spacing:normal;text-transform:none;writing-mode:lr-tb;direction:ltr;text-orientation:mixed;dominant-baseline:auto;baseline-shift:baseline;text-anchor:start;white-space:normal;shape-padding:0;clip-rule:nonzero;display:inline;overflow:visible;visibility:visible;opacity:1;isolation:auto;mix-blend-mode:normal;color-interpolation:sRGB;color-interpolation-filters:linearRGB;solid-color:#000000;solid-opacity:1;vector-effect:none;fill:#000000;fill-opacity:1;fill-rule:nonzero;stroke:none;stroke-width:0.52916664;stroke-linecap:round;stroke-linejoin:round;stroke-miterlimit:4;stroke-dasharray:none;stroke-dashoffset:0;stroke-opacity:1;paint-order:stroke fill markers;color-rendering:auto;image-rendering:auto;shape-rendering:auto;text-rendering:auto;enable-background:accumulate" d="M 2.9933575,-1.7103376e-7 A 0.26460979,0.26460979 0 0 0 2.7292909,0.26561683 v 0.160197 H 1.2394592 a 0.26460979,0.26460979 0 0 0 -0.025321,0 0.26460979,0.26460979 0 0 0 -0.23874491,0.26355 V 8.2031168 a 0.26460979,0.26460979 0 0 0 0.26406631,0.26355 H 7.225656 a 0.26460979,0.26460979 0 0 0 0.2656179,-0.26355 V 0.68936383 A 0.26460979,0.26460979 0 0 0 7.225656,0.42581383 H 5.7373748 v -0.160197 A 0.26460979,0.26460979 0 0 0 5.471759,-1.7103376e-7 Z M 3.2589743,0.52916683 h 1.9492349 v 0.320394 H 3.2589743 Z m -1.753898,0.425814 H 2.7292909 V 1.1131108 a 0.26460979,0.26460979 0 0 0 0.2640666,0.265617 H 5.471759 A 0.26460979,0.26460979 0 0 0 5.7373748,1.1131108 V 0.95498083 H 6.9621072 V 7.9374998 H 1.5050763 Z m 2.701127,1.58181497 a 0.26460979,0.26460979 0 0 0 -0.1855185,0.45527 l 0.050643,0.05064 h -1.16427 c -0.517612,0 -0.9430948,0.425999 -0.9430948,0.943611 0,0.517611 0.4254828,0.943095 0.9430948,0.943095 h 0.5508707 1.6975709 c 0.233607,0 0.4139282,0.178772 0.4139282,0.412378 0,0.233607 -0.1803212,0.413928 -0.4139282,0.413928 h -0.023771 l 0.05271,-0.05271 a 0.26460979,0.26460979 0 0 0 -0.191203,-0.453202 0.26460979,0.26460979 0 0 0 -0.181901,0.0801 l -0.503845,0.503845 a 0.26460979,0.26460979 0 0 0 0,0.373104 l 0.503845,0.503845 a 0.26460979,0.26460979 0 1 0 0.373104,-0.374654 l -0.05116,-0.05116 h 0.022221 c 0.5176107,0 0.9410287,-0.425483 0.9410287,-0.943095 0,-0.517611 -0.423418,-0.941544 -0.9410287,-0.941544 H 3.4579285 2.9070578 c -0.2336069,0 -0.4139281,-0.180323 -0.4139281,-0.413929 0,-0.233608 0.1803212,-0.413928 0.4139281,-0.413928 h 1.1663371 l -0.05271,0.05271 a 0.26460979,0.26460979 0 1 0 0.3746543,0.372587 L 4.899701,3.4959108 a 0.26460979,0.26460979 0 0 0 0,-0.375171 L 4.3953391,2.6168948 a 0.26460979,0.26460979 0 0 0 -0.1891358,-0.0801 z m 1.4061162,0.119373 a 0.26460979,0.26460979 0 0 0 -0.185519,0.455269 l 0.12299,0.12299 -0.12299,0.12299 a 0.26460979,0.26460979 0 1 0 0.3751723,0.373104 l 0.1219544,-0.121957 0.121957,0.121957 a 0.26460979,0.26460979 0 1 0 0.3751713,-0.373104 l -0.122989,-0.12299 0.122989,-0.12299 a 0.26460979,0.26460979 0 0 0 -0.1917198,-0.455269 0.26460979,0.26460979 0 0 0 -0.1834515,0.0801 l -0.121957,0.122474 -0.1219544,-0.122474 a 0.26460979,0.26460979 0 0 0 -0.1896533,-0.0801 z m -2.5156091,2.603459 c -0.416977,0 -0.7617108,0.342666 -0.7617108,0.759643 0,0.416976 0.3447338,0.761711 0.7617108,0.761711 0.4169759,0 0.7596433,-0.344735 0.7596433,-0.761711 0,-0.416977 -0.3426674,-0.759643 -0.7596433,-0.759643 z m 0,0.529166 c 0.1309928,0 0.2304767,0.09949 0.2304767,0.230477 0,0.130993 -0.099488,0.232544 -0.2304767,0.232544 -0.1309942,0 -0.2325442,-0.101551 -0.2325442,-0.232544 0,-0.130994 0.10155,-0.230477 0.2325442,-0.230477 z"/></svg:g></svg>