<svg height="300px" width="300px" fill="#000000" xmlns:dc="http://purl.org/dc/elements/1.1/" xmlns:cc="http://creativecommons.org/ns#" xmlns:rdf="http://www.w3.org/1999/02/22-rdf-syntax-ns#" xmlns:svg="http://www.w3.org/2000/svg" xmlns="http://www.w3.org/2000/svg" xmlns:sodipodi="http://sodipodi.sourceforge.net/DTD/sodipodi-0.dtd" xmlns:inkscape="http://www.inkscape.org/namespaces/inkscape" viewBox="0 0 16.933333 16.933333" version="1.1" x="0px" y="0px"><g><path style="opacity:1;fill:#000000;fill-opacity:1;stroke:none;stroke-width:1.99999988;stroke-linecap:round;stroke-linejoin:round;stroke-miterlimit:4;stroke-dasharray:none;paint-order:fill markers stroke" d="m 12.380859,4.9726562 c -0.03523,7.8e-5 -0.07044,0.00203 -0.105468,0.00586 -0.377,0.03657 -0.700862,0.2847635 -0.835938,0.640625 L 9.7832031,10 5.1347656,10.220703 c -0.9239993,0.03918 -1.3018717,1.212511 -0.5761718,1.789063 l 3.6308593,2.9375 -1.2265625,4.515625 c -0.2339076,0.887508 0.7425614,1.598357 1.5078125,1.097656 l 3.9023439,-2.566406 3.888672,2.566406 c 0.765653,0.50407 1.745643,-0.208419 1.509765,-1.097656 l -1.226562,-4.515625 3.630859,-2.9375 c 0.7257,-0.576552 0.347827,-1.749878 -0.576172,-1.789063 L 14.949219,10 13.304688,5.6191406 C 13.158627,5.232781 12.791843,4.9761095 12.380859,4.9726562 Z m 19.695313,0 c -0.03589,7.9e-6 -0.07175,0.00196 -0.107422,0.00586 -0.376269,0.037281 -0.699217,0.2853533 -0.833984,0.640625 L 29.478516,10 24.828125,10.220703 c -0.923999,0.03918 -1.301872,1.212511 -0.576172,1.789063 l 3.632813,2.9375 -1.228516,4.515625 c -0.235879,0.889238 0.744112,1.601728 1.509766,1.097656 l 3.902343,-2.566406 3.888672,2.566406 c 0.765251,0.500702 1.741721,-0.210147 1.507813,-1.097656 l -1.226563,-4.515625 3.632813,-2.9375 c 0.726302,-0.577177 0.346803,-1.751574 -0.578125,-1.789063 L 34.644531,10 33,5.6191406 C 32.853939,5.2327814 32.487155,4.97611 32.076172,4.9726562 Z m 19.693359,0 c -0.03524,7.79e-5 -0.07044,0.00203 -0.105469,0.00586 -0.376269,0.037281 -0.699217,0.2853533 -0.833984,0.640625 L 49.173828,10 l -4.65039,0.220703 c -0.923999,0.03918 -1.301872,1.212511 -0.576172,1.789063 l 3.630859,2.9375 -1.226563,4.515625 c -0.235879,0.889238 0.744112,1.601728 1.509766,1.097656 l 3.900391,-2.566406 3.890625,2.566406 c 0.765251,0.5007 1.741719,-0.210148 1.507812,-1.097656 l -1.226562,-4.515625 3.630859,-2.9375 c 0.7257,-0.576552 0.347827,-1.749878 -0.576172,-1.789063 L 54.337891,10 52.695312,5.6191406 C 52.548993,5.2321165 52.18123,4.9753028 51.769531,4.9726562 Z M 32.546875,27.197266 c -0.862299,0.05416 -1.505859,0.505801 -1.505859,1.33789 0,3.464358 -0.268342,6.768001 -2.041016,9.464844 -1.574929,2.396028 -3.651717,4.646047 -7,5 v 17 h 22 4 c 0.434415,0 0.574219,-0.800804 0.574219,-1.314453 V 56.667969 C 48.574219,56.211935 48.435541,55.5 48.001953,55.5 H 45 c -0.623815,-0.0091 -0.670439,-0.922506 -0.05078,-0.996094 0.0189,-8.92e-4 0.03415,-8.92e-4 0.05078,0 h 6 c 0.434415,0 0.574219,-0.71295 0.574219,-1.169922 v -1.666015 c 0,-0.454194 -0.136435,-1.164063 -0.56836,-1.164063 h -5.009765 c -0.669317,0.02948 -0.712134,-0.976379 -0.04297,-1.005859 0.01512,-6.54e-4 0.02634,-6.54e-4 0.04297,0 h 5.007812 c 0.432072,0 0.570313,-0.708947 0.570313,-1.164063 v -1.667968 c 0,-0.456953 -0.14022,-1.167969 -0.574219,-1.167969 h -5.003906 c -0.620406,-0.01701 -0.659334,-0.924283 -0.04297,-0.996094 V 44.5 c 0.01512,-6.54e-4 0.03012,0 0.04297,0 h 5.005859 c 0.433554,0 0.476635,-0.762643 0.522959,-1.167969 V 41.167969 C 51.524912,40.711939 51.435541,40 51.001953,40 H 37 v -8 c 0,-3.124997 -2.326729,-4.687474 -4.072266,-4.800781 -0.130771,-0.0083 -0.25776,-0.0097 -0.380859,-0.002 z M 14,43 c -0.553999,0 -1,0.446001 -1,1 v 15 c 0,0.553999 0.446001,1 1,1 h 5 c 0.553999,0 1,-0.446001 1,-1 V 44 c 0,-0.553999 -0.446001,-1 -1,-1 z" transform="scale(0.26458333)"/></g></svg>