<svg height="300px" width="300px" fill="#000000" xmlns="http://www.w3.org/2000/svg" xmlns:xlink="http://www.w3.org/1999/xlink" version="1.1" x="0px" y="0px" viewBox="0 0 100 100" enable-background="new 0 0 100 100" xml:space="preserve"><path d="M68.075,40.057c-1.952,1.952-4.512,2.929-7.071,2.929s-5.119-0.977-7.072-2.929c-3.903-3.904-3.903-10.238,0-14.143  c1.953-1.952,4.513-2.929,7.072-2.929s5.119,0.977,7.071,2.929c0.022,0.022,0.041,0.048,0.063,0.07h11.492l0.466-12.092  l-36.77,1.415L10.8,47.834c-3.889,3.89-3.889,10.254,0,14.143L32.013,83.19c3.888,3.89,10.253,3.889,14.143,0l32.526-32.527  l0.411-10.678H68.141C68.117,40.008,68.099,40.034,68.075,40.057z M46.498,67.291l-1.549-1.549c-0.376,0.248-0.761,0.476-1.158,0.66  c-1.012,0.473-2.094,0.729-3.175,0.729c-1.784,0.011-3.532-0.732-4.792-2.011l3.533-3.537c0.419,0.402,0.777,0.537,1.259,0.548  c0.293-0.001,0.646-0.067,1.065-0.263c0.418-0.193,0.9-0.52,1.404-1.022c0.652-0.652,1.154-1.294,1.453-1.835  c0.306-0.547,0.398-0.958,0.396-1.226c-0.002-0.172-0.027-0.306-0.104-0.483c-0.079-0.176-0.221-0.404-0.504-0.688  c-0.307-0.306-0.541-0.447-0.721-0.526c-0.182-0.076-0.323-0.104-0.525-0.105c-0.241-0.001-0.582,0.058-1.02,0.22  c-0.437,0.158-0.955,0.414-1.52,0.734c-1.139,0.635-2.418,1.52-3.906,2.218c-0.994,0.457-2.125,0.856-3.453,0.862  c-0.746,0.002-1.545-0.143-2.296-0.467c-0.753-0.322-1.446-0.811-2.05-1.417c-0.567-0.567-1.059-1.261-1.422-2.076  c-0.361-0.814-0.588-1.757-0.588-2.771c-0.002-0.985,0.217-2.03,0.678-3.04c0.191-0.421,0.434-0.835,0.705-1.241l-1.512-1.513  l3.535-3.535l1.572,1.573c0.313-0.199,0.627-0.385,0.948-0.545c1.106-0.551,2.278-0.86,3.454-0.86  c0.883-0.001,1.758,0.179,2.553,0.521c0.798,0.343,1.512,0.844,2.115,1.447l-3.533,3.537c-0.198-0.197-0.381-0.314-0.557-0.391  c-0.177-0.074-0.352-0.113-0.578-0.115c-0.297,0.001-0.699,0.076-1.229,0.338c-0.526,0.261-1.167,0.712-1.867,1.413  c-0.559,0.56-0.876,1.046-1.055,1.439c-0.179,0.396-0.229,0.702-0.23,0.971c0,0.273,0.059,0.517,0.158,0.744  c0.1,0.226,0.246,0.429,0.387,0.568c0.225,0.223,0.377,0.31,0.484,0.356c0.109,0.045,0.186,0.061,0.326,0.063  c0.182,0.002,0.486-0.049,0.903-0.209c0.415-0.156,0.925-0.414,1.486-0.736c1.134-0.643,2.438-1.539,3.972-2.238  c1.025-0.458,2.193-0.847,3.537-0.851c0.818-0.003,1.689,0.159,2.513,0.518c0.825,0.356,1.589,0.897,2.269,1.578  c0.652,0.652,1.182,1.39,1.539,2.196c0.359,0.805,0.535,1.673,0.533,2.511c-0.002,1.354-0.43,2.585-1.029,3.662  c-0.141,0.25-0.293,0.492-0.451,0.729l1.578,1.578L46.498,67.291z"/><path d="M65.311,30.485c-0.213-0.367-0.457-0.721-0.771-1.035c-0.943-0.943-2.199-1.464-3.535-1.464s-2.593,0.521-3.537,1.465  c-1.949,1.949-1.949,5.121,0.002,7.071c0.942,0.943,2.199,1.464,3.535,1.464s2.592-0.521,3.535-1.465  c0.314-0.314,0.56-0.668,0.772-1.036l26.804,0.001l0.001-5L65.311,30.485z"/></svg>