<svg height="300px" width="300px" fill="#000000" xmlns:dc="http://purl.org/dc/elements/1.1/" xmlns:cc="http://creativecommons.org/ns#" xmlns:rdf="http://www.w3.org/1999/02/22-rdf-syntax-ns#" xmlns:svg="http://www.w3.org/2000/svg" xmlns="http://www.w3.org/2000/svg" xmlns:sodipodi="http://sodipodi.sourceforge.net/DTD/sodipodi-0.dtd" xmlns:inkscape="http://www.inkscape.org/namespaces/inkscape" version="1.1" x="0px" y="0px" viewBox="0 0 100 100"><g transform="translate(0,-952.36218)"><path d="m 7.0052896,965.36229 c -0.5523,0 -1,0.44772 -1,1 0,0.55228 0.4477,1 1,1 l 13.3125014,0 c 5.2115,12.98498 10.3987,25.97442 15.5937,38.96871 l -4.8437,11.625 c -0.2727,0.6131 0.2666,1.4221 0.9375,1.4062 l 50,0 c 0.5283,0.01 1.0142,-0.4716 1.0142,-1 0,-0.5283 -0.4859,-1.0074 -1.0142,-1 l -48.5,0 4.2188,-10.0937 49.375,-3.9375 c 0.4076,-0.039 0.7745,-0.3531 0.875,-0.75 l 6,-25.99996 c 0.13,-0.58038 -0.374,-1.21453 -0.9688,-1.21875 l -67.3125,0 -3.75,-9.375 c -0.1496,-0.36985 -0.5386,-0.62914 -0.9375,-0.625 z m 19.5000014,12 65.25,0 -5.5625,24.06251 -48.5313,3.875 z m 16.5,45.99981 c -4.4064,0 -8,3.5935 -8,8 0,4.4065 3.5936,8 8,8 4.4064,0 8,-3.5936 8,-8 0,-4.4064 -3.5936,-8 -8,-8 z m 28,0 c -4.4064,0 -8,3.5936 -8,8 0,4.4064 3.5936,8 8,8 4.4064,0 8,-3.5935 8,-8 0,-4.4065 -3.5936,-8 -8,-8 z m -28,2 c 3.3256,0 6,2.6744 6,6 0,3.3256 -2.6744,6 -6,6 -3.3254,0 -6,-2.6745 -6,-6 0,-3.3255 2.6746,-6 6,-6 z m 28,0 c 3.3254,0 6,2.6745 6,6 0,3.3255 -2.6746,6 -6,6 -3.3256,0 -6,-2.6744 -6,-6 0,-3.3256 2.6744,-6 6,-6 z" style="text-indent:0;text-transform:none;direction:ltr;block-progression:tb;baseline-shift:baseline;color:#000000;enable-background:accumulate;" fill="#000000" fill-opacity="1" stroke="none" marker="none" visibility="visible" display="inline" overflow="visible"/></g></svg>