<svg height="300px" width="300px" fill="#000000" xmlns="http://www.w3.org/2000/svg" xmlns:xlink="http://www.w3.org/1999/xlink" version="1.1" x="0px" y="0px" viewBox="-449 451 100 100" style="enable-background:new -449 451 100 100;" xml:space="preserve"><style type="text/css">
	.st0{display:none;}
	.st1{display:inline;}
	.st2{fill-rule:evenodd;clip-rule:evenodd;}
</style><g class="st0"><g class="st1"><g><path d="M-1586.1,2040.5h-53.8c-1.7,0-3.2-1.4-3.2-3.2v-76l15.8-15.8h41.2c1.7,0,3.2,1.4,3.2,3.2v88.7     C-1582.9,2039.1-1584.3,2040.5-1586.1,2040.5z M-1611.4,2034.2h9.5v-15.8h-9.5V2034.2z M-1624.1,2034.2h9.5v-15.8h-9.5V2034.2z      M-1636.8,2031.8c0,1.3,1.1,2.4,2.4,2.4h7.1v-15.8h-9.5V2031.8z M-1634.4,1985.1c-1.3,0-2.4,1.1-2.4,2.4v13.5h9.5v-15.8     L-1634.4,1985.1L-1634.4,1985.1z M-1614.6,1985.1h-9.5v15.8h9.5V1985.1z M-1601.9,1985.1h-9.5v15.8h9.5V1985.1z M-1589.2,1987.5     c0-1.3-1.1-2.4-2.4-2.4h-7.1v15.8v1.6v1.6h-38v11.1h47.5V1987.5z M-1589.2,2018.3h-9.5v15.8h7.1c1.3,0,2.4-1.1,2.4-2.4V2018.3z"/></g></g><g class="st1"><path d="M-1358,1599.3c25.9,0,46.9,20.9,46.9,46.7s-21,46.7-46.9,46.7s-46.9-20.9-46.9-46.7S-1383.9,1599.3-1358,1599.3z"/><path d="M-1399.3,1664.7c4,4-6.5,25.3-5.6,26.1c0.9,0.9,23-7,26.3-3.7C-1374.6,1691.1-1403.2,1660.7-1399.3,1664.7z"/></g></g><g><path class="st2" d="M-361,540h-54c-1.1,0-2-0.9-2-2v-10c0-1.1,0.9-2,2-2h54c1.1,0,2,0.9,2,2v10C-359,539.1-359.9,540-361,540z    M-361,518h-54c-1.1,0-2-0.9-2-2v-8.6l-5.7-5.7c-0.4-0.4-0.4-1,0-1.3l5.7-5.7V486c0-1.1,0.9-2,2-2h54c1.1,0,2,0.9,2,2v30   C-359,517.1-359.9,518-361,518z M-361,476h-54c-1.1,0-2-0.9-2-2v-10c0-1.1,0.9-2,2-2h54c1.1,0,2,0.9,2,2v10   C-359,475.1-359.9,476-361,476z M-432,540c-3.9,0-7-3.1-7-7s3.1-7,7-7s7,3.1,7,7S-428.1,540-432,540z M-430,524h-4v-14h4V524z    M-432,508c-3.9,0-7-3.1-7-7s3.1-7,7-7s7,3.1,7,7S-428.1,508-432,508z M-430,492h-4v-14h4V492z M-432,476c-3.9,0-7-3.1-7-7   s3.1-7,7-7s7,3.1,7,7S-428.1,476-432,476z"/></g></svg>