<svg height="300px" width="300px" fill="#000000" xmlns="http://www.w3.org/2000/svg" viewBox="0 0 24 24" x="0px" y="0px"><title>Trending down</title><g data-name="Trending down"><path d="M22.421,19.438a1,1,0,0,1-.707-.293l-9.43-9.431A1,1,0,0,1,13.7,8.3l9.43,9.43a1,1,0,0,1-.707,1.708Z"/><path d="M22.991,19.975H16.074a1,1,0,0,1,0-2h5.912l-.027-5.88a1,1,0,0,1,1-1.005h0a1,1,0,0,1,1,1l.032,6.885a1,1,0,0,1-1,1.005Z"/><path d="M8.991,14.007a.993.993,0,0,1-.707-.293L.3,5.732A1,1,0,0,1,1.716,4.318L9.7,12.3a1,1,0,0,1-.707,1.707Z"/><path d="M8.991,14.007A1,1,0,0,1,8.284,12.3l4-4A1,1,0,0,1,13.7,9.714l-4,4A.993.993,0,0,1,8.991,14.007Z"/></g></svg>