<svg height="300px" width="300px" fill="#000000" xmlns="http://www.w3.org/2000/svg" xmlns:xlink="http://www.w3.org/1999/xlink" xml:space="preserve" version="1.1" style="shape-rendering:geometricPrecision;text-rendering:geometricPrecision;image-rendering:optimizeQuality;" viewBox="0 0 734 302" x="0px" y="0px" fill-rule="evenodd" clip-rule="evenodd"><defs><style type="text/css">
   
    .fil0 {fill:#000000}
   
  </style></defs><g><path class="fil0" d="M45 0l644 0c25,0 45,20 45,45 0,24 -20,44 -45,44l-644 0c-25,0 -45,-20 -45,-44 0,-25 20,-45 45,-45z"/><path class="fil0" d="M45 212l644 0c25,0 45,20 45,45 0,25 -20,45 -45,45l-644 0c-25,0 -45,-20 -45,-45 0,-25 20,-45 45,-45z"/></g></svg>