<svg xmlns="http://www.w3.org/2000/svg" width="10.095" height="10.103" viewBox="0 0 10.095 10.103"><g transform="translate(-5 -5.047)"><path d="M10.371,14.576a4.492,4.492,0,1,0-4.126-6.87H7.909a.281.281,0,1,1,0,.562H5.61a.281.281,0,0,1-.281-.281v-2.3a.281.281,0,0,1,.562,0V7.222A5.051,5.051,0,1,1,5,10.391a.281.281,0,1,1,.561-.033,4.5,4.5,0,0,0,4.809,4.217Zm-.321-7.85a.281.281,0,0,0-.281.281V10.1a.281.281,0,0,0,.082.2l2.186,2.184a.281.281,0,0,0,.4-.4l-2.1-2.1V7.007A.281.281,0,0,0,10.05,6.726Z" transform="translate(0)"/></g></svg>