<svg xmlns="http://www.w3.org/2000/svg" width="58.018" height="57.986" viewBox="0 0 58.018 57.986"><defs><style>.a{fill:#2dbc9c;fill-rule:evenodd;}</style></defs><g transform="translate(-5.958 -5.981)"><g transform="translate(5.958 5.981)"><path class="a" d="M56.129,968.322a1.317,1.317,0,0,0-.15,2.621c11.626,1.842,20.433,11.412,20.433,22.919a22.085,22.085,0,0,1-1.543,8.146,1.317,1.317,0,1,0,2.45.968,24.747,24.747,0,0,0,1.727-9.115c0-12.851-9.834-23.49-22.655-25.521a1.319,1.319,0,0,0-.262-.018Z" transform="translate(-22.646 -961.749)"/><path class="a" d="M59.438,1028.36a1.317,1.317,0,0,0-1,.484,25.321,25.321,0,0,1-38.28.012,1.317,1.317,0,0,0-2.015,1.7,27.955,27.955,0,0,0,42.31-.014,1.317,1.317,0,0,0-1.016-2.18Z" transform="translate(-10.012 -982.242)"/><path class="a" d="M32.349,968.271a1.335,1.335,0,0,0-.223.018c-12.936,1.941-22.887,12.628-22.887,25.556a24.736,24.736,0,0,0,1.647,8.905,1.317,1.317,0,1,0,2.459-.946,22.073,22.073,0,0,1-1.472-7.96c0-11.576,8.911-21.191,20.644-22.951a1.317,1.317,0,0,0-.168-2.623Z" transform="translate(-7.078 -961.732)"/><path class="a" d="M20.922,1005.25a1.317,1.317,0,0,0-.226,2.593l6.154,1.523L6.678,1020.131a1.317,1.317,0,1,0,1.235,2.326l20.521-10.95-1.647,6.093a1.317,1.317,0,1,0,2.532.7l2.388-8.871a1.367,1.367,0,0,0-.885-1.811l-9.509-2.326a1.336,1.336,0,0,0-.391-.041Z" transform="translate(-5.958 -974.353)"/><path class="a" d="M65.534,1005.249a1.341,1.341,0,0,0-.206.041l-9.489,2.326a1.317,1.317,0,0,0-.967,1.626l2.449,9.057a1.323,1.323,0,1,0,2.552-.7l-1.647-6.093,20.46,10.93a1.317,1.317,0,1,0,1.235-2.326l-20.11-10.744,6.134-1.523a1.317,1.317,0,0,0-.268-2.593,1.234,1.234,0,0,0-.144,0Z" transform="translate(-22.638 -974.353)"/><path class="a" d="M46.145,958.343a1.369,1.369,0,0,0-1.3,1.338L44.828,981.7l-4.734-4.446a1.325,1.325,0,1,0-1.811,1.935l6.957,6.5a1.258,1.258,0,0,0,1.811-.02l6.916-6.628a1.317,1.317,0,0,0-.926-2.285,1.333,1.333,0,0,0-.906.391l-4.672,4.487.02-21.962a1.37,1.37,0,0,0-1.338-1.338Z" transform="translate(-16.855 -958.343)"/></g></g></svg>